<svg width="140" height="140" viewBox="0 0 140 140" fill="none" xmlns="http://www.w3.org/2000/svg">
<rect width="140" height="140" fill="#272742"/>
<g clip-path="url(#clip0_2_2)">
<rect width="140" height="140" rx="15" fill="#272742"/>
<path fill-rule="evenodd" clip-rule="evenodd" d="M99.4196 17.0074C100.252 17.0033 100.93 17.6764 100.935 18.5108L101.286 90.8982C101.29 91.7326 100.618 92.4123 99.7853 92.4163C98.9527 92.4204 98.2744 91.7473 98.2704 90.9129L97.9193 18.5255C97.9153 17.6911 98.587 17.0114 99.4196 17.0074Z" fill="white"/>
<path fill-rule="evenodd" clip-rule="evenodd" d="M108.759 84.8315C107.926 84.8355 107.248 84.1624 107.244 83.328L106.966 26.0224C106.962 25.1881 107.634 24.5083 108.466 24.5043C109.299 24.5002 109.977 25.1733 109.981 26.0077L110.259 83.3133C110.263 84.1477 109.591 84.8274 108.759 84.8315Z" fill="white"/>
<path fill-rule="evenodd" clip-rule="evenodd" d="M117.719 72.722C116.887 72.726 116.208 72.0529 116.204 71.2185L116.051 39.552C116.047 38.7176 116.718 38.0379 117.551 38.0338C118.384 38.0298 119.062 38.7029 119.066 39.5373L119.219 71.2038C119.224 72.0382 118.552 72.7179 117.719 72.722Z" fill="white"/>
<path fill-rule="evenodd" clip-rule="evenodd" d="M126.687 62.1207C125.854 62.1248 125.176 61.4516 125.172 60.6172L125.121 50.0652C125.117 49.2308 125.788 48.5511 126.621 48.5471C127.454 48.543 128.132 49.2161 128.136 50.0505L128.187 60.6025C128.191 61.4369 127.52 62.1166 126.687 62.1207Z" fill="white"/>
<path fill-rule="evenodd" clip-rule="evenodd" d="M72.5735 62.3849C71.7409 62.389 71.0626 61.7159 71.0586 60.8815L71.0073 50.3295C71.0033 49.4951 71.675 48.8154 72.5076 48.8113C73.3402 48.8073 74.0185 49.4804 74.0225 50.3148L74.0737 60.8668C74.0778 61.7012 73.4061 62.3809 72.5735 62.3849Z" fill="white"/>
<path fill-rule="evenodd" clip-rule="evenodd" d="M81.6436 72.8981C80.8109 72.9022 80.1327 72.2291 80.1286 71.3947L79.975 39.7282C79.971 38.8938 80.6427 38.2141 81.4753 38.21C82.3079 38.2059 82.9862 38.879 82.9902 39.7134L83.1438 71.38C83.1479 72.2144 82.4762 72.8941 81.6436 72.8981Z" fill="white"/>
<path fill-rule="evenodd" clip-rule="evenodd" d="M90.721 84.9195C89.8884 84.9236 89.2101 84.2505 89.2061 83.4161L88.9281 26.1105C88.9241 25.2761 89.5958 24.5964 90.4284 24.5924C91.261 24.5883 91.9393 25.2614 91.9433 26.0958L92.2213 83.4014C92.2253 84.2358 91.5536 84.9155 90.721 84.9195Z" fill="white"/>
<path d="M70.0404 55.5408L131.67 55.2409L131.851 92.5604L70.2221 92.8603L70.0404 55.5408Z" fill="#272742"/>
<path fill-rule="evenodd" clip-rule="evenodd" d="M41.3923 122.454C42.223 122.45 42.8931 121.771 42.8891 120.938L42.5389 48.6779C42.5349 47.8448 41.8582 47.1727 41.0275 47.1768C40.1968 47.1809 39.5267 47.8595 39.5307 48.6926L39.8809 120.953C39.8849 121.786 40.5616 122.458 41.3923 122.454Z" fill="white"/>
<path fill-rule="evenodd" clip-rule="evenodd" d="M50.0474 54.6606C49.2167 54.6647 48.5465 55.3434 48.5506 56.1765L48.8278 113.381C48.8318 114.214 49.5085 114.886 50.3392 114.882C51.1699 114.878 51.84 114.2 51.836 113.367L51.5588 56.1618C51.5547 55.3287 50.8781 54.6566 50.0474 54.6606Z" fill="white"/>
<path fill-rule="evenodd" clip-rule="evenodd" d="M59.0995 66.661C58.2688 66.6651 57.5987 67.3438 57.6027 68.1769L57.7559 99.7874C57.7599 100.621 58.4366 101.293 59.2673 101.289C60.098 101.284 60.7681 100.606 60.7641 99.7727L60.6109 68.1621C60.6069 67.3291 59.9302 66.657 59.0995 66.661Z" fill="white"/>
<path fill-rule="evenodd" clip-rule="evenodd" d="M68.1442 77.1559C67.3135 77.1599 66.6434 77.8386 66.6474 78.6717L66.6985 89.2047C66.7025 90.0378 67.3792 90.7098 68.2099 90.7058C69.0405 90.7017 69.7107 90.0231 69.7066 89.19L69.6556 78.657C69.6516 77.8239 68.9749 77.1518 68.1442 77.1559Z" fill="white"/>
<path fill-rule="evenodd" clip-rule="evenodd" d="M14.182 77.4197C13.3514 77.4237 12.6812 78.1024 12.6853 78.9355L12.7363 89.4685C12.7403 90.3016 13.417 90.9736 14.2477 90.9696C15.0784 90.9655 15.7485 90.2868 15.7445 89.4538L15.6934 78.9208C15.6894 78.0877 15.0127 77.4156 14.182 77.4197Z" fill="white"/>
<path fill-rule="evenodd" clip-rule="evenodd" d="M23.1247 66.8369C22.294 66.841 21.6239 67.5196 21.6279 68.3527L21.7811 99.9633C21.7851 100.796 22.4618 101.468 23.2925 101.464C24.1232 101.46 24.7933 100.782 24.7893 99.9486L24.6361 68.338C24.6321 67.5049 23.9554 66.8328 23.1247 66.8369Z" fill="white"/>
<path fill-rule="evenodd" clip-rule="evenodd" d="M32.06 54.7486C31.2293 54.7526 30.5592 55.4313 30.5632 56.2644L30.8404 113.469C30.8444 114.302 31.5211 114.974 32.3518 114.97C33.1825 114.966 33.8526 114.288 33.8486 113.455L33.5714 56.2497C33.5674 55.4166 32.8907 54.7445 32.06 54.7486Z" fill="white"/>
<path d="M8.15253 47.1695L69.9993 46.8691L70.1809 84.1214L8.33418 84.4218L8.15253 47.1695Z" fill="#272742"/>
<path d="M18.7697 78.8728C17.5997 78.8728 16.4477 78.6658 15.3137 78.2518C14.1797 77.8198 13.1627 77.1718 12.2627 76.3078L14.3687 73.7158C14.9987 74.2558 15.7097 74.6788 16.5017 74.9848C17.3117 75.2908 18.1037 75.4438 18.8777 75.4438C19.7057 75.4438 20.3177 75.2908 20.7137 74.9848C21.1277 74.6788 21.3347 74.2648 21.3347 73.7428C21.3347 73.3648 21.2267 73.0678 21.0107 72.8518C20.8127 72.6178 20.5247 72.4108 20.1467 72.2308C19.7687 72.0508 19.3187 71.8528 18.7967 71.6368L16.5017 70.6918C15.9077 70.4218 15.3317 70.0798 14.7737 69.6658C14.2337 69.2338 13.7927 68.7118 13.4507 68.0998C13.1267 67.4698 12.9647 66.7228 12.9647 65.8588C12.9647 64.8868 13.2257 64.0138 13.7477 63.2398C14.2877 62.4478 15.0257 61.8178 15.9617 61.3498C16.9157 60.8638 18.0047 60.6208 19.2287 60.6208C20.2907 60.6208 21.3167 60.8098 22.3067 61.1878C23.2967 61.5658 24.1607 62.1148 24.8987 62.8348L22.7927 65.3998C22.2167 64.9678 21.6227 64.6348 21.0107 64.4008C20.4167 64.1668 19.8227 64.0498 19.2287 64.0498C18.5447 64.0498 17.9957 64.1938 17.5817 64.4818C17.1857 64.7518 16.9877 65.1388 16.9877 65.6428C16.9877 65.9848 17.1047 66.2818 17.3387 66.5338C17.5727 66.7678 17.8967 66.9748 18.3107 67.1548C18.7247 67.3168 19.1747 67.5058 19.6607 67.7218L21.9287 68.6398C22.6487 68.9278 23.2607 69.2878 23.7647 69.7198C24.2867 70.1518 24.6917 70.6738 24.9797 71.2858C25.2677 71.8798 25.4117 72.5908 25.4117 73.4188C25.4117 74.3908 25.1507 75.2908 24.6287 76.1188C24.1067 76.9468 23.3507 77.6128 22.3607 78.1168C21.3707 78.6208 20.1737 78.8728 18.7697 78.8728ZM33.2866 78.8728C32.1526 78.8728 31.0906 78.6028 30.1006 78.0628C29.1106 77.5048 28.3006 76.7038 27.6706 75.6598C27.0586 74.5978 26.7526 73.3288 26.7526 71.8528C26.7526 70.3768 27.0586 69.1168 27.6706 68.0728C28.3006 67.0108 29.1106 66.2098 30.1006 65.6698C31.0906 65.1118 32.1526 64.8328 33.2866 64.8328C34.4026 64.8328 35.4556 65.1118 36.4456 65.6698C37.4356 66.2098 38.2366 67.0108 38.8486 68.0728C39.4786 69.1168 39.7936 70.3768 39.7936 71.8528C39.7936 73.3288 39.4786 74.5978 38.8486 75.6598C38.2366 76.7038 37.4356 77.5048 36.4456 78.0628C35.4556 78.6028 34.4026 78.8728 33.2866 78.8728ZM33.2866 75.6598C33.8266 75.6598 34.2766 75.5068 34.6366 75.2008C35.0146 74.8948 35.2936 74.4538 35.4736 73.8778C35.6536 73.3018 35.7436 72.6268 35.7436 71.8528C35.7436 71.0788 35.6536 70.4038 35.4736 69.8278C35.2936 69.2518 35.0146 68.8108 34.6366 68.5048C34.2766 68.1988 33.8266 68.0458 33.2866 68.0458C32.7286 68.0458 32.2696 68.1988 31.9096 68.5048C31.5496 68.8108 31.2796 69.2518 31.0996 69.8278C30.9196 70.4038 30.8296 71.0788 30.8296 71.8528C30.8296 72.6268 30.9196 73.3018 31.0996 73.8778C31.2796 74.4538 31.5496 74.8948 31.9096 75.2008C32.2696 75.5068 32.7286 75.6598 33.2866 75.6598ZM45.9952 78.8728C44.5372 78.8728 43.4752 78.3958 42.8092 77.4418C42.1612 76.4698 41.8372 75.1468 41.8372 73.4728V65.1568H45.8062V72.9598C45.8062 73.9318 45.9412 74.5978 46.2112 74.9578C46.4812 75.3178 46.9042 75.4978 47.4802 75.4978C47.9662 75.4978 48.3892 75.3808 48.7492 75.1468C49.1092 74.9128 49.4782 74.5348 49.8562 74.0128V65.1568H53.8252V78.5488H50.5852L50.2882 76.6858H50.2072C49.6492 77.3518 49.0372 77.8828 48.3712 78.2788C47.7052 78.6748 46.9132 78.8728 45.9952 78.8728ZM56.7779 78.5488V65.1568H60.0179L60.2879 66.8578H60.3959C60.9539 66.2998 61.5839 65.8228 62.2859 65.4268C62.9879 65.0308 63.7889 64.8328 64.6889 64.8328C66.1649 64.8328 67.2269 65.3188 67.8749 66.2908C68.5229 67.2448 68.8469 68.5588 68.8469 70.2328V78.5488H64.8779V70.7458C64.8779 69.7738 64.7429 69.1078 64.4729 68.7478C64.2209 68.3878 63.8069 68.2078 63.2309 68.2078C62.7269 68.2078 62.2949 68.3248 61.9349 68.5588C61.5749 68.7748 61.1789 69.0898 60.7469 69.5038V78.5488H56.7779ZM76.4681 78.8728C74.8121 78.8728 73.4801 78.2518 72.4721 77.0098C71.4821 75.7498 70.9871 74.0308 70.9871 71.8528C70.9871 70.3948 71.2481 69.1438 71.7701 68.0998C72.3101 67.0558 73.0031 66.2548 73.8491 65.6968C74.7131 65.1208 75.6131 64.8328 76.5491 64.8328C77.2871 64.8328 77.9081 64.9588 78.4121 65.2108C78.9161 65.4628 79.3931 65.8048 79.8431 66.2368L79.6811 64.1848V59.6218H83.6501V78.5488H80.4101L80.1401 77.2258H80.0321C79.5641 77.6938 79.0151 78.0898 78.3851 78.4138C77.7551 78.7198 77.1161 78.8728 76.4681 78.8728ZM77.4941 75.6328C77.9261 75.6328 78.3221 75.5428 78.6821 75.3628C79.0421 75.1828 79.3751 74.8678 79.6811 74.4178V68.9368C79.3391 68.6128 78.9791 68.3878 78.6011 68.2618C78.2231 68.1358 77.8451 68.0728 77.4671 68.0728C77.0351 68.0728 76.6391 68.2078 76.2791 68.4778C75.9191 68.7478 75.6221 69.1618 75.3881 69.7198C75.1721 70.2598 75.0641 70.9528 75.0641 71.7988C75.0641 73.1128 75.2801 74.0848 75.7121 74.7148C76.1441 75.3268 76.7381 75.6328 77.4941 75.6328ZM90.2716 78.8458C89.3716 78.8458 88.6516 78.6658 88.1116 78.3058C87.5896 77.9278 87.2116 77.4058 86.9776 76.7398C86.7436 76.0558 86.6266 75.2638 86.6266 74.3638V59.6488H90.5956V74.5258C90.5956 74.9578 90.6676 75.2548 90.8116 75.4168C90.9736 75.5608 91.1446 75.6328 91.3246 75.6328C91.3966 75.6328 91.4596 75.6328 91.5136 75.6328C91.5856 75.6148 91.6756 75.5968 91.7836 75.5788L92.2696 78.5218C92.0536 78.6118 91.7746 78.6838 91.4326 78.7378C91.1086 78.8098 90.7216 78.8458 90.2716 78.8458ZM93.8122 78.5488V65.1568H97.7812V78.5488H93.8122ZM95.7832 63.1858C95.1172 63.1858 94.5772 62.9968 94.1632 62.6188C93.7492 62.2408 93.5422 61.7368 93.5422 61.1068C93.5422 60.4768 93.7492 59.9728 94.1632 59.5948C94.5772 59.2168 95.1172 59.0278 95.7832 59.0278C96.4492 59.0278 96.9892 59.2168 97.4032 59.5948C97.8172 59.9728 98.0242 60.4768 98.0242 61.1068C98.0242 61.7368 97.8172 62.2408 97.4032 62.6188C96.9892 62.9968 96.4492 63.1858 95.7832 63.1858ZM100.734 78.5488V65.1568H103.974L104.244 66.8578H104.352C104.91 66.2998 105.54 65.8228 106.242 65.4268C106.944 65.0308 107.745 64.8328 108.645 64.8328C110.121 64.8328 111.183 65.3188 111.831 66.2908C112.479 67.2448 112.803 68.5588 112.803 70.2328V78.5488H108.834V70.7458C108.834 69.7738 108.699 69.1078 108.429 68.7478C108.177 68.3878 107.763 68.2078 107.187 68.2078C106.683 68.2078 106.251 68.3248 105.891 68.5588C105.531 68.7748 105.135 69.0898 104.703 69.5038V78.5488H100.734ZM115.645 78.5488V59.6218H119.56V70.4218H119.668L123.826 65.1568H128.173L123.529 70.7188L128.524 78.5488H124.231L121.207 73.3378L119.56 75.2008V78.5488H115.645Z" fill="white"/>
</g>
<defs>
<clipPath id="clip0_2_2">
<rect width="140" height="140" rx="15" fill="white"/>
</clipPath>
</defs>
</svg>
