<svg width="13" height="14" viewBox="0 0 13 14" fill="none" xmlns="http://www.w3.org/2000/svg">
<path d="M10.6951 10.1924C10.1412 10.7328 9.0692 11.7786 8.18861 12.6376C7.41176 13.3955 6.17256 13.3956 5.39571 12.6377C4.53147 11.7946 3.47786 10.7668 2.88909 10.1924C0.733504 8.0895 0.733504 4.68005 2.88909 2.57716C5.04467 0.474279 8.53956 0.474279 10.6951 2.57716C12.8507 4.68005 12.8507 8.0895 10.6951 10.1924Z" stroke="white" stroke-linecap="round" stroke-linejoin="round"/>
<path d="M8.86201 6.38478C8.86201 7.5 7.93529 8.40407 6.79211 8.40407C5.64894 8.40407 4.72222 7.5 4.72222 6.38478C4.72222 5.26955 5.64894 4.36549 6.79211 4.36549C7.93529 4.36549 8.86201 5.26955 8.86201 6.38478Z" stroke="white" stroke-linecap="round" stroke-linejoin="round"/>
</svg>
