<svg width="13" height="14" viewBox="0 0 13 14" fill="none" xmlns="http://www.w3.org/2000/svg">
<path d="M10.4227 10.1924C9.86883 10.7328 8.7968 11.7786 7.91621 12.6376C7.13936 13.3955 5.90016 13.3956 5.12331 12.6377C4.25907 11.7946 3.20546 10.7668 2.61669 10.1924C0.461104 8.0895 0.461104 4.68005 2.61669 2.57716C4.77227 0.474279 8.26716 0.474279 10.4227 2.57716C12.5783 4.68005 12.5783 8.0895 10.4227 10.1924Z" stroke="#272742" stroke-linecap="round" stroke-linejoin="round"/>
<path d="M8.58961 6.38478C8.58961 7.5 7.66289 8.40407 6.51971 8.40407C5.37654 8.40407 4.44982 7.5 4.44982 6.38478C4.44982 5.26955 5.37654 4.36549 6.51971 4.36549C7.66289 4.36549 8.58961 5.26955 8.58961 6.38478Z" stroke="#272742" stroke-linecap="round" stroke-linejoin="round"/>
</svg>
